#N canvas 0 22 918 506 10;
#X obj -12 10 loadbang;
#X msg -3 77 \; pd dsp 1;
#X obj -25 135 print;
#X msg -25 111 turned dsp on.;
#X obj 249 40 adc~ 1;
#X obj 99 286 rev2~ 100 100 3000 50;
#X obj 254 425 dac~;
#X obj 229 365 stereovol 95;
#X connect 0 0 1 0;
#X connect 0 0 3 0;
#X connect 3 0 2 0;
#X connect 4 0 5 0;
#X connect 5 0 7 0;
#X connect 5 1 7 1;
#X connect 7 0 6 0;
#X connect 7 1 6 1;
